Coordinates
version=1
nRows=17
nColumns=24
inDegrees=yes

Units are S.I. units (second, meters, Newtons, ...)
Angles are in degrees.

endheader
time	pelvis_tilt	pelvis_list	pelvis_rotation	pelvis_tx	pelvis_ty	pelvis_tz	hip_flexion_r	hip_adduction_r	hip_rotation_r	knee_angle_r	ankle_angle_r	subtalar_angle_r	mtp_angle_r	hip_flexion_l	hip_adduction_l	hip_rotation_l	knee_angle_l	ankle_angle_l	subtalar_angle_l	mtp_angle_l	lumbar_extension	lumbar_bending	lumbar_rotation
      0.70400000	      1.00278878	      1.62764584	     10.71980731	     -0.07195911	      0.99975512	      0.27083920	     24.10696612	     -2.56942445	     -9.87610333	      2.52325040	      7.88569732	     -4.10459539	      6.24966068	    -18.70161207	      3.50109065	     13.48374656	    -11.64076041	     14.61791988	     -5.26484479	     -1.07568405	    -10.24184706	     -2.31373600	     -8.65767436
      0.70816667	      0.99635227	      1.51274103	     10.84186075	     -0.06612829	      0.99913970	      0.27085998	     24.17694272	     -2.48114143	     -9.76255193	      1.87738149	      7.97756706	     -4.42723304	      6.25944913	    -18.89742986	      3.28201656	     13.46053479	    -11.85591934	     14.47643791	     -5.17203366	     -1.07143861	    -10.14564755	     -2.14077655	     -8.70424013
      0.71233333	      0.93874277	      1.40932828	     10.94620793	     -0.06025464	      0.99845416	      0.27096348	     24.25522502	     -2.38799054	     -9.40989131	      1.33100830	      7.75725384	     -5.24527841	      6.30528340	    -19.02072952	      3.08276836	     13.36323979	    -12.11349682	     14.39686551	     -4.92618813	     -1.00786724	     -9.97921273	     -2.00331365	     -8.86108822
      0.71650000	      0.92875652	      1.28289035	     11.05551238	     -0.05431017	      0.99787416	      0.27105138	     24.27714600	     -2.26207999	     -9.16315192	      0.78353404	      7.55334080	     -5.95787162	      6.37721681	    -19.20167699	      2.84963481	     13.30527609	    -12.34817636	     14.24090779	     -4.77914516	     -0.90769868	     -9.85756825	     -1.82254451	     -8.93354053
      0.72066667	      0.92619678	      1.15112610	     11.16235016	     -0.04832911	      0.99732221	      0.27114969	     24.28561395	     -2.12364036	     -8.94253351	      0.24559064	      7.28251071	     -6.69240995	      6.46909902	    -19.38166964	      2.61006404	     13.23453591	    -12.59762584	     14.06186683	     -4.64354383	     -0.77507299	     -9.74025493	     -1.63481175	     -9.01014823
      0.72483333	      0.91717453	      1.01106162	     11.26678995	     -0.04229500	      0.99679446	      0.27126729	     24.29091614	     -1.97015189	     -8.73719755	     -0.27083116	      6.92919610	     -7.46999656	      6.57958007	    -19.54583199	      2.36330829	     13.15893070	    -12.86189748	     13.86112269	     -4.50897580	     -0.61122172	     -9.60781376	     -1.44273682	     -9.08038162
      0.72900000	      0.91905728	      0.86325985	     11.36878368	     -0.03621719	      0.99631137	      0.27140583	     24.27339341	     -1.79940877	     -8.54814585	     -0.76073705	      6.49816939	     -8.28132077	      6.71128398	    -19.71249529	      2.10511881	     13.07038977	    -13.13860109	     13.63576723	     -4.37024350	     -0.41274421	     -9.48134801	     -1.23945312	     -9.14519488
      0.73316667	      0.91431138	      0.70778037	     11.46417990	     -0.03009342	      0.99584877	      0.27156064	     24.25645882	     -1.61386590	     -8.37069299	     -1.23179965	      5.99414175	     -9.12073851	      6.86269172	    -19.86161018	      1.84250296	     12.96783474	    -13.43142352	     13.38838531	     -4.22631717	     -0.17772898	     -9.34258523	     -1.03264814	     -9.20039381
      0.73733333	      0.92166525	      0.54313478	     11.55805229	     -0.02392812	      0.99543599	      0.27173145	     24.21607526	     -1.41041095	     -8.21269257	     -1.67334951	      5.40860779	     -9.97849656	      7.03793370	    -20.01210649	      1.56757160	     12.85430515	    -13.74153600	     13.11062677	     -4.08351441	      0.09991801	     -9.20672792	     -0.81099251	     -9.25528870
      0.74150000	      0.95493595	      0.35800899	     11.63602156	     -0.01771407	      0.99508113	      0.27192836	     24.15155179	     -1.17418596	     -8.10452306	     -2.10826727	      4.77048889	    -10.76862789	      8.80190188	    -20.17365124	      1.26345116	     12.65026116	    -14.06398784	     12.76344367	     -3.84612407	      2.87795151	     -9.09144783	     -0.55560742	     -9.14380316
      0.74566667	      0.93513101	      0.18729266	     11.72430985	     -0.01148874	      0.99470927	      0.27212558	     24.13702868	     -0.96128736	     -8.00063951	     -2.53195665	      4.06941461	    -11.58992966	      8.82657113	    -20.27465802	      0.99553187	     12.57191785	    -14.40554926	     12.40383636	     -3.81861506	      2.95183864	     -8.92048929	     -0.34031214	     -9.34102084
      0.74983333	      0.94133486	     -0.00333618	     11.79300839	     -0.00521812	      0.99440431	      0.27236354	     24.08742991	     -0.71009133	     -7.87659378	     -2.92843477	      3.30776921	    -12.43430049	      8.88161982	    -20.38381478	      0.70186084	     12.40795602	    -14.77366766	     12.04342073	     -3.66975382	      3.08825284	     -8.76841124	     -0.09256727	     -9.34711583
      0.75400000	      0.94844137	     -0.20281246	     11.85644262	      0.00107297	      0.99414088	      0.27261978	     24.03985273	     -0.44602604	     -7.78222530	     -3.32534074	      2.52789531	    -13.22332481	      8.96134339	    -20.47503908	      0.40118720	     12.22413773	    -15.17033094	     11.65719607	     -3.51832699	      3.27654088	     -8.61188371	      0.16436024	     -9.36491628
      0.75816667	      0.97748545	     -0.41255129	     11.90805490	      0.00738319	      0.99394185	      0.27290602	     23.96984903	     -0.16032854	     -7.69465486	     -3.71648929	      1.72815241	    -13.97737111	      9.06564701	    -20.57525755	      0.08774826	     12.01425534	    -15.58525807	     11.24038862	     -3.35833517	      3.52508099	     -8.47989932	      0.43787761	     -9.36493361
      0.76233333	      1.02854343	     -0.63825149	     11.94317329	      0.01373148	      0.99381618	      0.27322621	     23.88614964	      0.15119795	     -7.64752364	     -4.12343294	      0.95715654	    -14.62783223	     10.34384664	    -20.68184733	     -0.24873579	     11.72534997	    -16.00883963	     10.71427883	     -3.12390925	      6.42608512	     -8.36882880	      0.73226432	     -9.27583349
      0.76650000	      0.98687477	     -0.85122593	     11.97778386	      0.02005757	      0.99362015	      0.27354357	     23.91353182	      0.42899619	     -7.58308706	     -4.56242950	      0.16738440	    -15.24417692	     10.35472400	    -20.66697451	     -0.53507742	     11.53601048	    -16.48943144	     10.21508916	     -3.07281074	      6.50985403	     -8.15293963	      0.98910474	     -9.35418814
      0.77066667	      1.02586526	     -1.08945225	     11.99069339	      0.02641487	      0.99357196	      0.27390626	     23.85284067	      0.76088491	     -7.51813118	     -4.98919431	     -0.59418202	    -15.83650672	     10.38980479	    -20.72145562	     -0.86590081	     11.24731194	    -16.98261258	      9.69006290	     -2.90239611	      6.67066171	     -8.02535901	      1.29500148	     -9.31075535
